# xmcd
#
# Track frame offsets:
#	150
#	16934
#	31588
#	45881
#	59428
#
# Disc length: 972 seconds
#
# Revision: 1
# Processed by: cddbd v1.4PL0 Copyright (c) Steve Scherf et al.
# Submitted via: audiograbber 1.82.01
#
DISCID=2c03ca05
DTITLE=Billy Currington - Advance Sampler
DYEAR=2003
DGENRE=Country
TTITLE0=Walk A Little Straighter
TTITLE1=I Got A Feelin
TTITLE2=Off My Rocker
TTITLE3=That's Just Me
TTITLE4=Growin' Up Down There
EXTD=
EXTT0=
EXTT1=
EXTT2=
EXTT3=
EXTT4=
PLAYORDER=
